<?xml version="1.0" encoding="utf-8"?>
<svg viewBox="-0.57 1 45 45" width="100%" height="100%" xmlns="http://www.w3.org/2000/svg" xmlns:bx="https://boxy-svg.com">
  <path d="M22 9a4 4 0 0 0-4 4c0 .9.3 1.7.78 2.38-1.95 1.12-3.28 3.2-3.28 5.62 0 2.03.94 3.84 2.4 5.03-3 1.06-7.4 5.55-7.4 13.47h23c0-7.92-4.4-12.4-7.4-13.47 1.47-1.2 2.4-3 2.4-5.03 0-2.4-1.33-4.5-3.28-5.62.5-.67.78-1.5.78-2.38a4 4 0 0 0-4-4z" fill="#fff" stroke="#000" stroke-width="1.5"/>
  <path d="M 21.566 34.066 m -1.352 0 a 1.352 1.479 0 1 0 2.704 0 a 1.352 1.479 0 1 0 -2.704 0 Z M 21.566 34.066 m -1.109 0 a 1.109 1.212 0 0 1 2.218 0 a 1.109 1.212 0 0 1 -2.218 0 Z" style="fill: rgb(216, 216, 216); stroke: rgb(0, 0, 0);" bx:shape="ring 21.566 34.066 1.109 1.212 1.352 1.479 1@249632cf"/>
  <path d="M 21.769 29.322 m -1.352 0 a 1.352 1.479 0 1 0 2.704 0 a 1.352 1.479 0 1 0 -2.704 0 Z M 21.769 29.322 m -1.109 0 a 1.109 1.212 0 0 1 2.218 0 a 1.109 1.212 0 0 1 -2.218 0 Z" style="fill: rgb(216, 216, 216); stroke: rgb(0, 0, 0);" bx:shape="ring 21.769 29.322 1.109 1.212 1.352 1.479 1@366ff849"/>
  <path d="M 21.728 24.384 m -1.352 0 a 1.352 1.479 0 1 0 2.704 0 a 1.352 1.479 0 1 0 -2.704 0 Z M 21.728 24.384 m -1.109 0 a 1.109 1.212 0 0 1 2.218 0 a 1.109 1.212 0 0 1 -2.218 0 Z" style="fill: rgb(216, 216, 216); stroke: rgb(0, 0, 0);" bx:shape="ring 21.728 24.384 1.109 1.212 1.352 1.479 1@9cfda91b"/>
  <path d="M 21.662 19.357 m -1.352 0 a 1.352 1.479 0 1 0 2.704 0 a 1.352 1.479 0 1 0 -2.704 0 Z M 21.662 19.357 m -1.109 0 a 1.109 1.212 0 0 1 2.218 0 a 1.109 1.212 0 0 1 -2.218 0 Z" style="fill: rgb(216, 216, 216); stroke: rgb(0, 0, 0);" bx:shape="ring 21.662 19.357 1.109 1.212 1.352 1.479 1@10b1b784"/>
  <path d="M 21.877 13.57 m -1.352 0 a 1.352 1.479 0 1 0 2.704 0 a 1.352 1.479 0 1 0 -2.704 0 Z M 21.877 13.57 m -1.109 0 a 1.109 1.212 0 0 1 2.218 0 a 1.109 1.212 0 0 1 -2.218 0 Z" style="fill: rgb(216, 216, 216); stroke: rgb(0, 0, 0);" bx:shape="ring 21.877 13.57 1.109 1.212 1.352 1.479 1@0023076d"/>
  <path d="M 15.623 34.258 m -1.352 0 a 1.352 1.479 0 1 0 2.704 0 a 1.352 1.479 0 1 0 -2.704 0 Z M 15.623 34.258 m -1.109 0 a 1.109 1.212 0 0 1 2.218 0 a 1.109 1.212 0 0 1 -2.218 0 Z" style="fill: rgb(216, 216, 216); stroke: rgb(0, 0, 0);" bx:shape="ring 15.623 34.258 1.109 1.212 1.352 1.479 1@10f79fab"/>
  <path d="M 27.307 34.159 m -1.352 0 a 1.352 1.479 0 1 0 2.704 0 a 1.352 1.479 0 1 0 -2.704 0 Z M 27.307 34.159 m -1.109 0 a 1.109 1.212 0 0 1 2.218 0 a 1.109 1.212 0 0 1 -2.218 0 Z" style="fill: rgb(216, 216, 216); stroke: rgb(0, 0, 0);" bx:shape="ring 27.307 34.159 1.109 1.212 1.352 1.479 1@ec247fdd"/>
</svg>