<?xml version="1.0" encoding="utf-8"?>
<svg viewBox="-0.57 1 45 45" width="100%" height="100%" xmlns="http://www.w3.org/2000/svg" xmlns:bx="https://boxy-svg.com">
  <path d="M22 9a4 4 0 0 0-4 4c0 .9.3 1.7.78 2.38-1.95 1.12-3.28 3.2-3.28 5.62 0 2.03.94 3.84 2.4 5.03-3 1.06-7.4 5.55-7.4 13.47h23c0-7.92-4.4-12.4-7.4-13.47 1.47-1.2 2.4-3 2.4-5.03 0-2.4-1.33-4.5-3.28-5.62.5-.67.78-1.5.78-2.38a4 4 0 0 0-4-4z" stroke="#000" stroke-width="1.5"/>
  <path d="M 22.074 12.94 m -1.352 0 a 1.352 1.479 0 1 0 2.704 0 a 1.352 1.479 0 1 0 -2.704 0 Z M 22.074 12.94 m -1.109 0 a 1.109 1.212 0 0 1 2.218 0 a 1.109 1.212 0 0 1 -2.218 0 Z" style="fill: rgb(216, 216, 216); stroke: rgb(255, 255, 255);" bx:shape="ring 22.074 12.94 1.109 1.212 1.352 1.479 1@8a1095a5"/>
  <path d="M 21.918 19.035 m -1.352 0 a 1.352 1.479 0 1 0 2.704 0 a 1.352 1.479 0 1 0 -2.704 0 Z M 21.918 19.035 m -1.109 0 a 1.109 1.212 0 0 1 2.218 0 a 1.109 1.212 0 0 1 -2.218 0 Z" style="fill: rgb(216, 216, 216); stroke: rgb(255, 255, 255);" bx:shape="ring 21.918 19.035 1.109 1.212 1.352 1.479 1@7b2bc205"/>
  <path d="M 21.876 24.058 m -1.352 0 a 1.352 1.479 0 1 0 2.704 0 a 1.352 1.479 0 1 0 -2.704 0 Z M 21.876 24.058 m -1.109 0 a 1.109 1.212 0 0 1 2.218 0 a 1.109 1.212 0 0 1 -2.218 0 Z" style="fill: rgb(216, 216, 216); stroke: rgb(255, 255, 255);" bx:shape="ring 21.876 24.058 1.109 1.212 1.352 1.479 1@4fda939d"/>
  <path d="M 21.894 29.668 m -1.352 0 a 1.352 1.479 0 1 0 2.704 0 a 1.352 1.479 0 1 0 -2.704 0 Z M 21.894 29.668 m -1.109 0 a 1.109 1.212 0 0 1 2.218 0 a 1.109 1.212 0 0 1 -2.218 0 Z" style="fill: rgb(216, 216, 216); stroke: rgb(255, 255, 255);" bx:shape="ring 21.894 29.668 1.109 1.212 1.352 1.479 1@74ce0423"/>
  <path d="M 21.97 34.58 m -1.352 0 a 1.352 1.479 0 1 0 2.704 0 a 1.352 1.479 0 1 0 -2.704 0 Z M 21.97 34.58 m -1.109 0 a 1.109 1.212 0 0 1 2.218 0 a 1.109 1.212 0 0 1 -2.218 0 Z" style="fill: rgb(216, 216, 216); stroke: rgb(255, 255, 255);" bx:shape="ring 21.97 34.58 1.109 1.212 1.352 1.479 1@df70b061"/>
  <path d="M 16.283 34.564 m -1.352 0 a 1.352 1.479 0 1 0 2.704 0 a 1.352 1.479 0 1 0 -2.704 0 Z M 16.283 34.564 m -1.109 0 a 1.109 1.212 0 0 1 2.218 0 a 1.109 1.212 0 0 1 -2.218 0 Z" style="fill: rgb(216, 216, 216); stroke: rgb(255, 255, 255);" bx:shape="ring 16.283 34.564 1.109 1.212 1.352 1.479 1@123ec570"/>
  <path d="M 27.605 34.427 m -1.352 0 a 1.352 1.479 0 1 0 2.704 0 a 1.352 1.479 0 1 0 -2.704 0 Z M 27.605 34.427 m -1.109 0 a 1.109 1.212 0 0 1 2.218 0 a 1.109 1.212 0 0 1 -2.218 0 Z" style="fill: rgb(216, 216, 216); stroke: rgb(255, 255, 255);" bx:shape="ring 27.605 34.427 1.109 1.212 1.352 1.479 1@c90a63e4"/>
</svg>