<svg id="Capa_1" enable-background="new 0 0 512 512" height="512" viewBox="0 0 512 512" width="512" xmlns="http://www.w3.org/2000/svg"><g><path d="m238.584 385.588c-3.092-7.698-33.625-86.408-34.084-190.654-.037-8.259-6.742-14.934-15-14.934h-80c-3.99 0-7.815 1.59-10.63 4.417-2.815 2.828-4.388 6.66-4.37 10.65.48 106.149-33.066 190.467-33.401 191.296-1.875 4.625-1.328 9.878 1.461 14.016 2.787 4.14 7.45 6.621 12.44 6.621h150 .02c8.284 0 15-6.716 15-15 0-2.294-.515-4.468-1.436-6.412z" fill="#453d81"/><path d="m238.584 385.588c-3.092-7.698-33.625-86.408-34.084-190.654-.037-8.259-6.742-14.934-15-14.934h-39.5v227h75 .02c8.284 0 15-6.716 15-15 0-2.294-.515-4.468-1.436-6.412z" fill="#2e2654"/><path d="m230 75c-1.67 0-10.434.325-19 6.75-5.379 4.034-11.516 11.12-14.374 23.25h-31.626v-30c0-8.284-6.716-15-15-15s-15 6.716-15 15v30h-31.626c-2.858-12.13-8.995-19.216-14.374-23.25-8.566-6.425-17.33-6.75-19-6.75-8.284 0-15 6.716-15 15 0 8.065 6.365 14.644 14.346 14.986 3.439.552 5.654 6.421 5.654 15.014v50c0 8.284 6.716 15 15 15h120c8.284 0 15-6.716 15-15v-50c0-8.593 2.215-14.462 5.654-15.014 7.981-.342 14.346-6.921 14.346-14.986 0-8.284-6.716-15-15-15z" fill="#453d81"/><path d="m230 75c-1.67 0-10.434.325-19 6.75-5.379 4.034-11.516 11.12-14.374 23.25h-31.626v-30c0-8.284-6.716-15-15-15v125h60c8.284 0 15-6.716 15-15v-50c0-8.593 2.215-14.462 5.654-15.014 7.981-.342 14.346-6.921 14.346-14.986 0-8.284-6.716-15-15-15z" fill="#2e2654"/><path d="m60 437c-16.542 0-30-13.458-30-30s13.458-30 30-30h180c16.542 0 30 13.458 30 30s-13.458 30-30 30v10h-180z" fill="#5e54ac"/><path d="m240 377h-90v70h90v-10c16.542 0 30-13.458 30-30s-13.458-30-30-30z" fill="#453d81"/><path d="m255 437h-210c-24.813 0-45 20.187-45 45v15c0 8.284 6.716 15 15 15h248.333l36.667-30c0-24.813-20.187-45-45-45z" fill="#453d81"/><path d="m255 437h-105v75h113.333l36.667-30c0-24.813-20.187-45-45-45z" fill="#2e2654"/><path d="m230 195h-160c-8.284 0-15-6.716-15-15s6.716-15 15-15h160c8.284 0 15 6.716 15 15s-6.716 15-15 15z" fill="#5e54ac"/><path d="m230 165h-80v30h80c8.284 0 15-6.716 15-15s-6.716-15-15-15z" fill="#453d81"/><circle cx="150" cy="45" fill="#5e54ac" r="45"/><path d="m150 0v90c24.813 0 45-20.187 45-45s-20.187-45-45-45z" fill="#453d81"/><path d="m462.717 438.574c-.009-.004-.018-.009-.027-.013-2.716-1.683-36.69-24.702-36.69-117.895 0-8.284-6.716-15-15-15h-60c-8.284 0-15 6.716-15 15 0 93.386-34.001 116.244-36.662 117.881-6.488 2.786-9.801 9.583-8.422 16.536 1.394 7.023 7.925 11.917 15.084 11.917h150 .02c.43 0 .856-.018 1.277-.054 6.626-.548 12.459-5.254 13.777-11.837 1.388-6.934-1.898-13.725-8.357-16.535z" fill="#ffb454"/><path d="m462.717 438.574c-.009-.004-.018-.009-.027-.013-2.716-1.683-36.69-24.702-36.69-117.895 0-8.284-6.716-15-15-15h-30.002v161.334h75.002.02c.43 0 .856-.018 1.277-.054 6.626-.548 12.459-5.254 13.777-11.837 1.388-6.934-1.898-13.725-8.357-16.535z" fill="#ff8659"/><path d="m429.199 137.835c-12.271-17.901-29.839-28.168-48.199-28.168s-35.928 10.267-48.199 28.168c-11.264 16.433-17.468 38.007-17.468 60.748 0 25.454 6.351 34.818 12.663 47.084l1.972 6.817c2.563 5.022 7.724 8.183 13.362 8.183h75.34c5.638 0 10.799-3.161 13.362-8.183.411-.806.892-6.124 1.305-6.926 6.28-12.189 13.331-21.488 13.331-46.974-.001-22.742-6.205-44.315-17.469-60.749z" fill="#ffb454"/><path d="m429.199 137.835c-12.271-17.901-29.839-28.168-48.199-28.168 0 0-.001 0-.002 0v151h37.672c5.638 0 10.799-3.161 13.362-8.183.411-.806.892-6.124 1.305-6.926 6.28-12.189 13.331-21.488 13.331-46.974-.001-22.742-6.205-44.315-17.469-60.749z" fill="#ff8659"/><path d="m467 437h-172c-24.813 0-45 20.187-45 45v15c0 8.284 6.716 15 15 15h232c8.284 0 15-6.716 15-15v-15c0-24.813-20.187-45-45-45z" fill="#ffed6a"/><path d="m467 437h-86.002v75h116.002c8.284 0 15-6.716 15-15v-15c0-24.813-20.187-45-45-45z" fill="#ffb454"/><path d="m466 290.667h-10.843c-6.006-3.813-21.612-16.47-21.821-45.109l-105.34.109c0 29.31-15.195 41.435-21.004 45h-10.992c-8.284 0-15 6.716-15 15s6.716 15 15 15h170c8.284 0 15-6.716 15-15s-6.716-15-15-15z" fill="#ffed6a"/><path d="m466 290.667h-10.843c-6.006-3.813-21.612-16.47-21.821-45.109l-52.338.054v75.055h85.002c8.284 0 15-6.716 15-15s-6.716-15-15-15z" fill="#ffb454"/><circle cx="381" cy="94.667" fill="#ffed6a" r="45"/><path d="m381 49.667s-.001 0-.002 0v90h.001c24.814 0 45.001-20.187 45.001-45s-20.187-45-45-45z" fill="#ffb454"/></g></svg>