<?xml version="1.0" encoding="iso-8859-1"?>
<!-- Generator: Adobe Illustrator 19.0.0, SVG Export Plug-In . SVG Version: 6.00 Build 0)  -->
<svg version="1.1" id="Layer_1" xmlns="http://www.w3.org/2000/svg" xmlns:xlink="http://www.w3.org/1999/xlink" x="0px" y="0px"
	 viewBox="0 0 512 512" style="enable-background:new 0 0 512 512;" xml:space="preserve">
<rect x="243.999" y="56.011" style="fill:#D4E4AC;" width="32.009" height="24.007"/>
<g>
	<polygon style="fill:#F2BF7E;" points="308.014,176.048 211.987,176.048 187.98,120.033 332.021,120.033 	"/>
	<rect x="219.987" y="200.052" style="fill:#F2BF7E;" width="80.023" height="176.05"/>
</g>
<rect x="179.98" y="80.023" style="fill:#E2804F;" width="160.046" height="40.006"/>
<g>
	<rect x="195.838" y="176.05" style="fill:#D4E4AC;" width="127.764" height="24.007"/>
	<rect x="188.397" y="376.103" style="fill:#D4E4AC;" width="135.206" height="24.007"/>
</g>
<polyline style="fill:#F2BF7E;" points="180.012,440.205 180.012,400.377 331.987,400.377 331.987,440.205 "/>
<rect x="155.968" y="440.121" style="fill:#D4E4AC;" width="200.052" height="24.007"/>
<rect x="147.971" y="464.122" style="fill:#E2804F;" width="216.057" height="40.006"/>
<path d="M371.89,512h-231.78v-55.733h231.781V512H371.89z M155.831,496.278h200.338v-24.29H155.831V496.278z"/>
<path d="M340.372,431.82v-39.828H171.627v39.828h-15.722v15.722h200.188V431.82H340.372z M187.348,407.713H324.65v24.106H187.348
	V407.713z"/>
<path d="M323.602,207.525v-15.722H195.733v15.722h16.77v152.574c0,4.366-3.144,7.786-8.385,7.786h-15.722v15.722h135.206v-15.722
	h-7.337c-5.241,0-8.385-3.42-8.385-7.786V207.525H323.602z M293.46,367.885h-66.536c0.841-2.427,1.301-5.045,1.301-7.786V207.525
	h63.934v152.574C292.159,362.842,292.618,365.458,293.46,367.885z"/>
<path d="M347.884,127.893V72.162H172.117v55.732h10.68l17.059,39.803h-11.46v15.722h143.591v-15.722h-11.843l17.059-39.804
	C337.204,127.893,347.884,127.893,347.884,127.893z M187.839,87.884h144.323v24.289H187.839V87.884z M303.041,167.697h-86.08
	l-17.058-39.804h120.198L303.041,167.697z"/>
<polygon points="283.774,31.443 283.774,15.722 268.053,15.722 268.053,0 252.331,0 252.331,15.722 235.561,15.722 235.561,31.443 
	252.331,31.443 252.331,48.213 243.946,48.213 243.946,63.934 276.438,63.934 276.438,48.213 268.053,48.213 268.053,31.443 "/>
<g>
</g>
<g>
</g>
<g>
</g>
<g>
</g>
<g>
</g>
<g>
</g>
<g>
</g>
<g>
</g>
<g>
</g>
<g>
</g>
<g>
</g>
<g>
</g>
<g>
</g>
<g>
</g>
<g>
</g>
</svg>
