<svg width="196" height="142.65939495114495" viewBox="0 0 369.6666666666667 133.17278535422537" class="css-1j8o68f"><defs id="SvgjsDefs4073"><linearGradient id="SvgjsLinearGradient4078"><stop id="SvgjsStop4079" stop-color="#006838" offset="0"></stop><stop id="SvgjsStop4080" stop-color="#96cf24" offset="1"></stop></linearGradient></defs><g id="SvgjsG4074" transform="matrix(0.30062606930732727,0,0,0.30062606930732727,0.000009174379934853094,0.0000032343273012519207)" fill="url(#SvgjsLinearGradient4078)"><g xmlns="http://www.w3.org/2000/svg" transform="translate(-290.144,-348.87487)"><path style="" d="m 416.5229,349.12869 c -14.8709,-2.278 -16.9786,11.216 -15.7769,22.897 33.4298,7.706 80.8836,25.938 109.5492,67.074 25.1871,36.247 30.7993,82.751 16.4252,138.758 48.1363,-44.616 76.272,-179.344 -50.4061,-213.437 0,0 -34.1075,-11.273 -59.7914,-15.292 z m -40.0497,36.085 c -13.2553,0.829 -26.9116,7.389 -28.2363,28.724 -0.8279,15.741 -8.549,24.882 -18.3672,29.936 -19.013,10.189 -24.1273,35.114 -11.3274,52.347 6.5455,9.03 17.091,14.483 28.3995,14.483 14.6238,-0.165 34.4848,-2.321 45.7945,-12.137 19.6351,-16.57 46.8435,19.304 5.501,25.891 -41.2999,6.545 -128.2583,62.241 -80.8269,145.878 0,0 4.8044,12.419 13.8349,26.214 6.6282,10.19 18.1626,16.182 30.3416,16.182 l 117.4785,0 0.1821,-0.415 c -2.3194,-4.928 -3.5589,-8.172 -3.5589,-8.172 -26.8843,-47.472 -10.5373,-85.93 16.1815,-111.571 12.5113,-12.014 21.1916,-27.51 23.2213,-44.743 l 0.4849,-3.882 c 4.1007,-31.939 0,-59.693 -12.1364,-82.85 -2.155,-4.101 -4.6305,-8.205 -7.2811,-11.974 -31.6497,-45.444 -91.6197,-59.486 -119.6643,-63.918 z m -7.9293,334.961 c -20.6713,0 -37.4122,15.751 -39.4832,35.843 l -21.0355,0 c -9.901,0 -17.8812,7.98 -17.8812,17.88 0,9.901 7.9388,17.962 17.8812,17.962 l 20.631,0 170.3933,0 20.6322,0 c 9.8584,0 17.8799,-8.061 17.8799,-17.962 0,-9.9 -8.0215,-17.88 -17.8799,-17.88 l -21.1172,0 c -2.071,-20.092 -18.7729,-35.843 -39.4027,-35.843 l -90.6179,0 z" fill="url(#SvgjsLinearGradient4078)"></path></g></g><g id="SvgjsG4075" featurekey="nameFeature-0" transform="matrix(1.4109346866607666,0,0,1.4109346866607666,102.15344002912894,30.068785781285595)" fill="#ffffff"><path d="M12 34.4 l0.4 0 l6.2 -22.4 l5.2 0 l0 2.2 l-8 25.8 l-7.2 0 l-8 -25.8 l0 -2.2 l5.2 0 z M39.2 12 l8.6 25.8 l0 2.2 l-5.2 0 l-1.8 -6 l-10 0 l-1.8 6 l-5.2 0 l0 -2.2 l8.6 -25.8 l6.8 0 z M35.6 17.6 l-3.6 12 l7.6 0 l-3.6 -12 l-0.4 0 z M71.80000000000001 23.4 c0 5 -4.6 5.8 -4.6 5.8 l5.4 8.6 l0 2.2 l-5.2 0 l-5.4 -10.4 l-5.6 0 l0 10.4 l-5.2 0 l0 -28 l14 0 c4 0 6.6 2.6 6.6 6.2 l0 5.2 z M56.400000000000006 16.4 l0 8.8 l7.4 0 c1.6 0 2.8 -1.2 2.8 -2.6 l0 -3.6 c0 -1.4 -1.2 -2.6 -2.8 -2.6 l-7.4 0 z M81.00000000000001 19 l0 14 c0 1.4 1.2 2.6 2.8 2.6 l11.6 0 l0 4.4 l-13 0 c-4 0 -6.6 -2.6 -6.6 -6.2 l0 -15.6 c0 -3.6 2.6 -6.2 6.6 -6.2 l13 0 l0 3 l-1.4 1.4 l-10.2 0 c-1.6 0 -2.8 1.2 -2.8 2.6 z M99.00000000000001 12 l5.2 0 l0 11.6 l10.4 0 l0 -11.6 l5.2 0 l0 28 l-5.2 0 l0 -12 l-10.4 0 l0 12 l-5.2 0 l0 -28 z M125.40000000000002 40 l0 -28 l19.2 0 l0 3 l-1.4 1.4 l-12.6 0 l0 7.2 l10.2 0 l0 4.4 l-10.2 0 l0 7.6 l14 0 l0 4.4 l-19.2 0 z M167.00000000000003 34 c0 3.2 -2.8 6 -6.8 6 l-13.4 0 l0 -4.4 l11.8 0 c2 0 3.2 -1.2 3.2 -2.8 l0 -1.4 c0 -1.6 -0.6 -2.4 -1.6 -2.6 l-8.2 -1.8 c-2.8 -0.6 -5 -2.8 -5 -6.2 l0 -2.8 c0 -3.2 2.8 -6 6.8 -6 l12.4 0 l0 3 l-1.4 1.4 l-9.4 0 c-2 0 -3.2 1.2 -3.2 2.8 l0 1 c0 1.6 0.6 2.2 1.6 2.4 l8.2 1.8 c2.8 0.6 5 2.8 5 6.4 l0 3.2 z M189.60000000000002 34 c0 3.2 -2.8 6 -6.8 6 l-13.4 0 l0 -4.4 l11.8 0 c2 0 3.2 -1.2 3.2 -2.8 l0 -1.4 c0 -1.6 -0.6 -2.4 -1.6 -2.6 l-8.2 -1.8 c-2.8 -0.6 -5 -2.8 -5 -6.2 l0 -2.8 c0 -3.2 2.8 -6 6.8 -6 l12.4 0 l0 3 l-1.4 1.4 l-9.4 0 c-2 0 -3.2 1.2 -3.2 2.8 l0 1 c0 1.6 0.6 2.2 1.6 2.4 l8.2 1.8 c2.8 0.6 5 2.8 5 6.4 l0 3.2 z"></path></g></svg>