<?xml version="1.0" encoding="UTF-8" standalone="no" ?>
<!DOCTYPE svg PUBLIC "-//W3C//DTD SVG 1.1//EN" "http://www.w3.org/Graphics/SVG/1.1/DTD/svg11.dtd">
<svg xmlns="http://www.w3.org/2000/svg" xmlns:xlink="http://www.w3.org/1999/xlink" version="1.1" width="500" height="200" viewBox="0 0 500 200" xml:space="preserve">
<desc>Created with Fabric.js 5.3.0</desc>
<defs>
</defs>
<g transform="matrix(0.3530320234 0 0 0.3310650017 66.5849347859 97.4999855286)" id="uY9jkv_bvR4o7P5Iq-wHT"  >
<linearGradient id="SVGID_4" gradientUnits="objectBoundingBox" gradientTransform="matrix(1 0 0 1 0 0)"  x1="0" y1="0" x2="1" y2="0">
<stop offset="0%" style="stop-color:rgb(0,104,56);stop-opacity: 1"/>
<stop offset="100%" style="stop-color:rgb(150,207,36);stop-opacity: 1"/>
</linearGradient>
<path style="stroke: none; stroke-width: 1; stroke-dasharray: none; stroke-linecap: butt; stroke-dashoffset: 0; stroke-linejoin: miter; stroke-miterlimit: 4; fill: url(#SVGID_4); fill-rule: nonzero; opacity: 1;" vector-effect="non-scaling-stroke"  transform=" translate(-428.743627336, -570.3672787078)" d="M 416.5229 349.12869 C 401.652 346.85069 399.5443 360.34469 400.746 372.02569 C 434.1758 379.73169 481.6296 397.96369 510.29519999999997 439.09969 C 535.4823 475.34669 541.0944999999999 521.85069 526.7203999999999 577.85769 C 574.8566999999999 533.2416900000001 602.9924 398.51369000000005 476.31429999999995 364.42069000000004 C 476.31429999999995 364.42069000000004 442.20679999999993 353.14769 416.52289999999994 349.12869000000006 z M 376.4732 385.21369 C 363.21790000000004 386.04269 349.5616 392.60269 348.2369 413.93769 C 347.409 429.67868999999996 339.6879 438.81969 329.86969999999997 443.87368999999995 C 310.8567 454.06269 305.7424 478.98768999999993 318.54229999999995 496.22068999999993 C 325.08779999999996 505.2506899999999 335.63329999999996 510.70368999999994 346.94179999999994 510.70368999999994 C 361.56559999999996 510.5386899999999 381.42659999999995 508.3826899999999 392.7362999999999 498.56668999999994 C 412.37139999999994 481.99668999999994 439.5797999999999 517.87069 398.2372999999999 524.45769 C 356.9373999999999 531.0026899999999 269.9789999999999 586.6986899999999 317.41039999999987 670.3356899999999 C 317.41039999999987 670.3356899999999 322.21479999999985 682.7546899999999 331.2452999999999 696.5496899999998 C 337.87349999999986 706.7396899999999 349.40789999999987 712.7316899999998 361.5868999999999 712.7316899999998 L 479.0653999999999 712.7316899999998 L 479.2474999999999 712.3166899999999 C 476.9280999999999 707.3886899999999 475.6885999999999 704.1446899999999 475.6885999999999 704.1446899999999 C 448.8042999999999 656.6726899999999 465.1512999999999 618.2146899999998 491.87009999999987 592.5736899999998 C 504.38139999999987 580.5596899999998 513.0616999999999 565.0636899999998 515.0913999999999 547.8306899999998 L 515.5763 543.9486899999998 C 519.6769999999999 512.0096899999999 515.5763 484.25568999999984 503.43989999999997 461.0986899999998 C 501.2849 456.9976899999998 498.8094 452.8936899999998 496.1588 449.1246899999998 C 464.5091 403.6806899999998 404.53909999999996 389.6386899999998 376.4945 385.2066899999998 z M 368.5439 720.17469 C 347.87260000000003 720.17469 331.1317 735.92569 329.0607 756.01769 L 308.0252 756.01769 C 298.1242 756.01769 290.144 763.99769 290.144 773.89769 C 290.144 783.79869 298.0828 791.85969 308.0252 791.85969 L 328.6562 791.85969 L 499.0495 791.85969 L 519.6817 791.85969 C 529.5400999999999 791.85969 537.5616 783.79869 537.5616 773.89769 C 537.5616 763.99769 529.5401 756.01769 519.6817 756.01769 L 498.56449999999995 756.01769 C 496.4934999999999 735.92569 479.79159999999996 720.17469 459.16179999999997 720.17469 L 368.54389999999995 720.17469 z" stroke-linecap="round" />
</g>
<g transform="matrix(1.8163531233 0 0 2.3245959525 310.697222227 101.0339768052)" id="6v2pg0rqa57qKKitr01aF"  >
<path style="stroke: none; stroke-width: 1; stroke-dasharray: none; stroke-linecap: butt; stroke-dashoffset: 0; stroke-linejoin: miter; stroke-miterlimit: 4; fill: rgb(255,255,255); fill-rule: nonzero; opacity: 1;" vector-effect="non-scaling-stroke"  transform=" translate(0, 0)" d="M -83.1 8.4 L -82.69999999999999 8.4 L -76.49999999999999 -13.999999999999998 L -71.29999999999998 -13.999999999999998 L -71.29999999999998 -11.799999999999997 L -79.29999999999998 14.000000000000004 L -86.49999999999999 14.000000000000004 L -94.49999999999999 -11.799999999999997 L -94.49999999999999 -13.999999999999996 L -89.29999999999998 -13.999999999999996 z M -55.9 -14 L -47.3 11.8 L -47.3 14 L -52.5 14 L -54.3 8 L -64.3 8 L -66.1 14 L -71.3 14 L -71.3 11.8 L -62.699999999999996 -14 z M -59.5 -8.4 L -63.1 3.5999999999999996 L -55.5 3.5999999999999996 L -59.1 -8.4 z M -23.3 -2.6 C -23.3 2.4 -27.9 3.1999999999999997 -27.9 3.1999999999999997 L -22.5 11.799999999999999 L -22.5 14 L -27.7 14 L -33.1 3.5999999999999996 L -38.7 3.5999999999999996 L -38.7 14 L -43.900000000000006 14 L -43.900000000000006 -14 L -29.900000000000006 -14 C -25.900000000000006 -14 -23.300000000000004 -11.4 -23.300000000000004 -7.8 z M -38.7 -9.6 L -38.7 -0.7999999999999989 L -31.300000000000004 -0.7999999999999989 C -29.700000000000003 -0.7999999999999989 -28.500000000000004 -1.999999999999999 -28.500000000000004 -3.399999999999999 L -28.500000000000004 -6.999999999999999 C -28.500000000000004 -8.399999999999999 -29.700000000000003 -9.6 -31.300000000000004 -9.6 z M -14.1 -7 L -14.1 7 C -14.1 8.4 -12.9 9.6 -11.3 9.6 L 0.29999999999999893 9.6 L 0.29999999999999893 14 L -12.700000000000001 14 C -16.700000000000003 14 -19.3 11.4 -19.3 7.8 L -19.3 -7.8 C -19.3 -11.4 -16.7 -14 -12.700000000000001 -14 L 0.29999999999999893 -14 L 0.29999999999999893 -11 L -1.100000000000001 -9.6 L -11.3 -9.6 C -12.9 -9.6 -14.100000000000001 -8.4 -14.100000000000001 -7 z M 3.9 -14 L 9.1 -14 L 9.1 -2.4000000000000004 L 19.5 -2.4000000000000004 L 19.5 -14 L 24.7 -14 L 24.7 14 L 19.5 14 L 19.5 2 L 9.1 2 L 9.1 14 L 3.8999999999999995 14 z M 30.3 14 L 30.3 -14 L 49.5 -14 L 49.5 -11 L 48.1 -9.6 L 35.5 -9.6 L 35.5 -2.3999999999999995 L 45.7 -2.3999999999999995 L 45.7 2.000000000000001 L 35.5 2.000000000000001 L 35.5 9.600000000000001 L 49.5 9.600000000000001 L 49.5 14.000000000000002 z M 71.9 8 C 71.9 11.2 69.10000000000001 14 65.10000000000001 14 L 51.70000000000001 14 L 51.70000000000001 9.6 L 63.500000000000014 9.6 C 65.50000000000001 9.6 66.70000000000002 8.4 66.70000000000002 6.8 L 66.70000000000002 5.4 C 66.70000000000002 3.8000000000000003 66.10000000000002 3.0000000000000004 65.10000000000002 2.8000000000000003 L 56.90000000000002 1.0000000000000002 C 54.10000000000002 0.40000000000000024 51.90000000000002 -1.7999999999999996 51.90000000000002 -5.2 L 51.90000000000002 -8 C 51.90000000000002 -11.2 54.70000000000002 -14 58.70000000000002 -14 L 71.10000000000002 -14 L 71.10000000000002 -11 L 69.70000000000002 -9.6 L 60.30000000000002 -9.6 C 58.30000000000002 -9.6 57.100000000000016 -8.4 57.100000000000016 -6.8 L 57.100000000000016 -5.8 C 57.100000000000016 -4.199999999999999 57.70000000000002 -3.5999999999999996 58.70000000000002 -3.4 L 66.90000000000002 -1.5999999999999999 C 69.70000000000002 -0.9999999999999999 71.90000000000002 1.2 71.90000000000002 4.800000000000001 L 71.90000000000002 8 z M 94.5 8 C 94.5 11.2 91.7 14 87.7 14 L 74.3 14 L 74.3 9.6 L 86.1 9.6 C 88.1 9.6 89.3 8.4 89.3 6.8 L 89.3 5.4 C 89.3 3.8000000000000003 88.7 3.0000000000000004 87.7 2.8000000000000003 L 79.5 1.0000000000000002 C 76.7 0.40000000000000024 74.5 -1.7999999999999996 74.5 -5.2 L 74.5 -8 C 74.5 -11.2 77.3 -14 81.3 -14 L 93.7 -14 L 93.7 -11 L 92.3 -9.6 L 82.89999999999999 -9.6 C 80.89999999999999 -9.6 79.69999999999999 -8.4 79.69999999999999 -6.8 L 79.69999999999999 -5.8 C 79.69999999999999 -4.199999999999999 80.29999999999998 -3.5999999999999996 81.29999999999998 -3.4 L 89.49999999999999 -1.5999999999999999 C 92.29999999999998 -0.9999999999999999 94.49999999999999 1.2 94.49999999999999 4.800000000000001 L 94.49999999999999 8 z" stroke-linecap="round" />
</g>
</svg>