<?xml version="1.0"?>
<svg width="1280" height="810" xmlns="http://www.w3.org/2000/svg" xmlns:svg="http://www.w3.org/2000/svg" preserveAspectRatio="xMidYMid meet" style="vector-effect: non-scaling-stroke;">
 <metadata>Created by potrace 1.15, written by Peter Selinger 2001-2017</metadata>
 <g class="layer">
  <title>Layer 1</title>
  <g fill="#000000" id="svg_1" transform="translate(0 810) scale(0.1 -0.1)">
   <path d="m238.252988,7717.851961l0,-473.872932l1333.336008,0l1333.336008,0l0,473.872932l0,473.872932l-1333.336008,0l-1333.336008,0l0,-473.872932z" fill="black" id="svg_2"/>
   <path d="m3238.25292,7717.851961l0,-473.872932l1333.336008,0l1333.336008,0l0,473.872932l0,473.872932l-1333.336008,0l-1333.336008,0l0,-473.872932z" fill="black" id="svg_3"/>
   <path d="m6238.25273,7717.851961l0,-473.872932l1333.336008,0l1333.336008,0l0,473.872932l0,473.872932l-1333.336008,0l-1333.336008,0l0,-473.872932z" fill="black" id="svg_4"/>
   <path d="m9238.252784,7717.851961l0,-473.872932l1333.336008,0l1333.336008,0l0,473.872932l0,473.872932l-1333.336008,0l-1333.336008,0l0,-473.872932z" fill="black" id="svg_5"/>
   <path d="m12238.252838,7717.851961l0,-473.872932l1333.336008,0l1333.336008,0l0,473.872932l0,473.872932l-1333.336008,0l-1333.336008,0l0,-473.872932z" fill="black" id="svg_6"/>
   <path d="m-940.065504,6517.851876l0,-473.872932l1333.336008,0l1333.336008,0l0,473.872932l0,473.872932l-1333.336008,0l-1333.336008,0l0,-473.872932z" fill="black" id="svg_7"/>
   <path d="m2059.93455,6517.851876l0,-473.872932l1333.336008,0l1333.336008,0l0,473.872932l0,473.872932l-1333.336008,0l-1333.336008,0l0,-473.872932z" fill="black" id="svg_8"/>
   <path d="m5059.93436,6517.851876l0,-473.872932l1333.336008,0l1333.336008,0l0,473.872932l0,473.872932l-1333.336008,0l-1333.336008,0l0,-473.872932z" fill="black" id="svg_9"/>
   <path d="m8059.934414,6517.851876l0,-473.872932l1333.336008,0l1333.336008,0l0,473.872932l0,473.872932l-1333.336008,0l-1333.336008,0l0,-473.872932z" fill="black" id="svg_10"/>
   <path d="m11059.934956,6517.851876l0,-473.872932l1333.336008,0l1333.336008,0l0,473.872932l0,473.872932l-1333.336008,0l-1333.336008,0l0,-473.872932z" fill="black" id="svg_11"/>
   <path d="m238.252988,5319.852036l0,-473.872932l1320.932882,0c726.823163,0 1324.65382,0 1330.855382,0c4.96125,0 9.922501,212.976599 12.403126,473.872932l2.480625,473.872932l-1333.336008,0l-1333.336008,0l0,-473.872932z" fill="black" id="svg_12"/>
   <path d="m3238.25292,5325.176303l0,-479.197347l1333.336008,0l1333.336008,0l0,479.197347l0,479.197347l-1333.336008,0l-1333.336008,0l0,-479.197347z" fill="black" id="svg_13"/>
   <path d="m6238.25273,5323.046733l0,-477.067581l1329.61507,2.129766l1330.855382,3.194649l3.720938,473.872932l2.480625,473.872932l-1333.336008,0l-1333.336008,0l0,-476.002698z" fill="black" id="svg_14"/>
   <path d="m9240.733409,5319.851792l3.720938,-473.872932l1327.134445,0l1327.134445,0l3.720938,473.872932l2.480625,473.872932l-1333.336008,0l-1333.336008,0l2.480625,-473.872932z" fill="black" id="svg_15"/>
   <path d="m12238.252838,5323.046733l0,-477.067581l1329.61507,2.129766l1330.855382,3.194649l3.720938,473.872932l2.480625,473.872932l-1333.336008,0l-1333.336008,0l0,-476.002698z" fill="black" id="svg_16"/>
   <path d="m2059.934626,4123.176707l0,-479.197347l1333.336008,0l1333.336008,0l-2.480625,477.067581l-3.720938,476.002698l-1329.61507,3.194649l-1330.855382,2.129766l0,-479.197347z" fill="black" id="svg_17"/>
   <path d="m-940.06555,4117.852292l0,-473.872932l1333.336008,0l1333.336008,0l0,473.872932l0,473.872932l-1333.336008,0l-1333.336008,0l0,-473.872932z" fill="black" id="svg_18"/>
   <path d="m5059.934436,4117.852292l0,-473.872932l1333.336008,0l1333.336008,0l0,473.872932l0,473.872932l-1333.336008,0l-1333.336008,0l0,-473.872932z" fill="black" id="svg_19"/>
   <path d="m8061.934978,4117.852292l0,-473.872932l1333.336008,0l1333.336008,0l0,473.872932l0,473.872932l-1333.336008,0l-1333.336008,0l0,-473.872932z" fill="black" id="svg_20"/>
   <path d="m11059.934544,4117.852292l0,-473.872932l1333.336008,0l1333.336008,0l0,473.872932l0,473.872932l-1333.336008,0l-1333.336008,0l0,-473.872932z" fill="black" id="svg_21"/>
   <path d="m246.935133,3384.270888c-4.96125,-3.194649 -8.682188,-217.236131 -8.682188,-473.872932l0,-466.418751l1337.056945,0l1335.816633,0l-3.720938,473.872932l-2.480625,473.872932l-1325.894132,0c-728.063476,0 -1328.374757,-3.194649 -1332.095695,-7.454181z" fill="black" id="svg_22"/>
   <path d="m3238.733502,2926.371297l3.720938,-477.067581l1330.855382,-3.194649l1329.61507,-2.129766l0,479.197347l0,479.197347l-1333.336008,0l-1333.336008,0l2.480625,-476.002698z" fill="black" id="svg_23"/>
   <path d="m6246.935119,3384.270888c-4.96125,-3.194649 -8.682188,-217.236131 -8.682188,-473.872932l0,-466.418751l1337.056945,0l1335.816633,0l-2.480625,470.678283l-3.720938,471.743166l-1324.65382,3.194649c-729.303788,1.064883 -1329.61507,-1.064883 -1333.336008,-5.324415z" fill="black" id="svg_24"/>
   <path d="m9243.973826,3384.270888c-1.240313,-5.324415 -2.480625,-218.301013 -3.720938,-473.872932l0,-466.418751l1330.855382,0l1329.61507,0l0,473.872932l0,473.872932l-1327.134445,0c-729.303788,0 -1328.374757,-3.194649 -1329.61507,-7.454181z" fill="black" id="svg_25"/>
   <path d="m12248.935227,3384.27101c-4.96125,-3.194649 -8.682188,-217.236131 -8.682188,-473.872932l0,-466.418751l1337.056945,0l1335.816633,0l-2.480625,470.678283l-3.720938,471.743166l-1324.65382,3.194649c-729.303788,1.064883 -1329.61507,-1.064883 -1333.336008,-5.324415z" fill="black" id="svg_26"/>
   <path d="m-937.098362,2186.400787c-2.480625,-5.324415 -3.720938,-219.365896 -2.480625,-473.872932l3.720938,-463.224102l1330.855382,-3.194649l1329.61507,-2.129766l0,476.002698l0,477.067581l-1328.374757,0c-874.420358,0 -1330.855382,-3.194649 -1333.336008,-10.64883z" fill="black" id="svg_27"/>
   <path d="m2059.934461,1723.176685l0,-479.197347l1333.336008,0l1333.336008,0l0,479.197347l0,479.197347l-1333.336008,0l-1333.336008,0l0,-479.197347z" fill="black" id="svg_28"/>
   <path d="m5062.901625,2186.400787c-2.480625,-5.324415 -3.720938,-219.365896 -2.480625,-473.872932l3.720938,-463.224102l1330.855382,-3.194649l1329.61507,-2.129766l0,476.002698l0,477.067581l-1328.374757,0c-874.420358,0 -1330.855382,-3.194649 -1333.336008,-10.64883z" fill="black" id="svg_29"/>
   <path d="m8062.90119,2186.400787c-2.480625,-5.324415 -3.720938,-219.365896 -2.480625,-473.872932l3.720938,-463.224102l1330.855382,-3.194649l1329.61507,-2.129766l0,476.002698l0,477.067581l-1328.374757,0c-874.420358,0 -1330.855382,-3.194649 -1333.336008,-10.64883z" fill="black" id="svg_30"/>
   <path d="m11062.901733,2186.400787c-2.480625,-5.324415 -3.720938,-219.365896 -2.480625,-473.872932l3.720938,-463.224102l1330.855382,-3.194649l1329.61507,-2.129766l0,476.002698l0,477.067581l-1328.374757,0c-874.420358,0 -1330.855382,-3.194649 -1333.336008,-10.64883z" fill="black" id="svg_31"/>
   <path d="m238.252953,617.852308l0,-473.872932l1333.336008,0l1333.336008,0l0,473.872932l0,473.872932l-1333.336008,0l-1333.336008,0l0,-473.872932z" fill="black" id="svg_32"/>
   <path d="m3238.253038,617.852308l0,-473.872932l1333.336008,0l1333.336008,0l0,473.872932l0,473.872932l-1333.336008,0l-1333.336008,0l0,-473.872932z" fill="black" id="svg_33"/>
   <path d="m6238.253092,617.852308l0,-473.872932l1333.336008,0l1333.336008,0l0,473.872932l0,473.872932l-1333.336008,0l-1333.336008,0l0,-473.872932z" fill="black" id="svg_34"/>
   <path d="m9238.252658,617.852308l0,-473.872932l1333.336008,0l1333.336008,0l0,473.872932l0,473.872932l-1333.336008,0l-1333.336008,0l0,-473.872932z" fill="black" id="svg_35"/>
   <path d="m815.940388,-553.679514l0,-473.872932l1333.336008,0l1333.336008,0l0,473.872932l0,473.872932l-1333.336008,0l-1333.336008,0l0,-473.872932z" fill="black" id="svg_36" transform="translate(-66 -38)"/>
   <path d="m3897.868665,-667.679514l0,-473.872932l1333.336008,0l1333.336008,0l0,473.872932l0,473.872932l-1333.336008,0l-1333.336008,0l0,-473.872932z" fill="black" id="svg_37"/>
   <path d="m6867.796942,-651.679514l0,-473.872932l1333.336008,0l1333.336008,0l0,473.872932l0,473.872932l-1333.336008,0l-1333.336008,0l0,-473.872932z" fill="black" id="svg_38"/>
   <path d="m9909.725218,-709.679514l0,-473.872932l1333.336008,0l1333.336008,0l0,473.872932l0,473.872932l-1333.336008,0l-1333.336008,0l0,-473.872932z" fill="black" id="svg_39"/>
   <path d="m12238.253135,539.384123l0,-395.404754l1333.336008,0l1333.336007,0l0,473.872932l0,473.872931l-1333.336007,0l-1333.336008,0l0,-552.341109z" fill="black" id="svg_40"/>
  </g>
 </g>
</svg>